<?xml version="1.0" standalone="no"?>
<!DOCTYPE svg PUBLIC "-//W3C//DTD SVG 20010904//EN"
 "http://www.w3.org/TR/2001/REC-SVG-20010904/DTD/svg10.dtd">
<svg version="1.0" xmlns="http://www.w3.org/2000/svg"
 width="5906.000000pt" height="5906.000000pt" viewBox="0 0 5906.000000 5906.000000"
 preserveAspectRatio="xMidYMid meet">

<g transform="translate(0.000000,5906.000000) scale(0.100000,-0.100000)"
fill="#000000" stroke="none">
<path d="M13050 53524 c-370 -13 -677 -73 -964 -190 -461 -188 -835 -494
-1160 -949 -62 -87 -183 -317 -236 -450 -87 -216 -149 -491 -170 -744 -16
-203 -22 -1004 -15 -1851 l8 -820 2688 0 c1781 0 2690 3 2694 10 8 13 12700
13 13310 0 242 -6 503 -14 580 -19 270 -19 560 -41 585 -46 14 -2 81 -9 150
-15 69 -6 199 -20 290 -31 1715 -208 3219 -669 4530 -1389 1108 -609 2027
-1297 2872 -2150 655 -661 1161 -1296 1717 -2153 159 -246 436 -709 551 -922
18 -33 62 -114 98 -180 257 -472 626 -1273 835 -1815 31 -80 72 -188 93 -240
51 -131 175 -484 236 -670 28 -85 63 -193 79 -240 74 -223 200 -661 290 -1010
119 -456 267 -1110 339 -1490 12 -63 33 -171 46 -240 14 -69 47 -260 74 -425
28 -165 54 -322 60 -350 6 -27 17 -102 25 -165 24 -176 54 -388 65 -460 5 -36
21 -166 35 -290 14 -124 30 -256 35 -295 35 -253 113 -1232 130 -1635 6 -135
15 -324 21 -420 16 -280 23 -1441 10 -1840 -22 -708 -40 -1067 -72 -1465 -11
-137 -24 -311 -30 -385 -24 -337 -123 -1194 -184 -1585 -7 -49 -23 -153 -35
-230 -344 -2241 -1029 -4508 -1860 -6155 -97 -192 -269 -515 -333 -625 -22
-38 -58 -101 -80 -140 -259 -451 -618 -993 -941 -1419 -461 -608 -953 -1153
-1526 -1691 -307 -288 -520 -468 -980 -832 -213 -168 -597 -435 -870 -605
-103 -64 -467 -278 -473 -278 -2 0 -61 -32 -133 -71 -361 -198 -922 -449
-1394 -625 -815 -304 -1796 -550 -2710 -679 -102 -14 -230 -32 -285 -40 -123
-18 -326 -41 -545 -60 -91 -8 -178 -17 -195 -19 -81 -13 -674 -48 -940 -55
-165 -4 -2118 -9 -4339 -10 -2222 0 -4042 -4 -4045 -7 -8 -8 -14 -4989 -7
-5020 l7 -25 4572 4 c4041 3 4610 6 4897 20 586 29 1140 71 1540 117 96 11
234 27 305 35 272 31 886 125 1178 180 42 8 114 22 160 30 1031 192 2155 515
3112 895 1123 446 2216 1037 3140 1699 1804 1291 3363 2908 4606 4778 85 127
176 267 203 310 27 43 73 114 101 158 28 44 115 186 192 315 483 807 884 1590
1275 2490 97 223 115 266 278 675 127 318 162 410 300 785 87 235 296 855 375
1110 31 102 70 226 85 275 40 128 96 320 136 465 19 69 54 197 79 285 58 210
232 909 285 1150 23 105 57 258 75 340 45 199 156 765 196 995 104 600 210
1328 259 1780 11 96 29 256 40 355 12 99 27 263 35 365 8 102 19 228 25 280
40 397 80 1130 110 1990 22 637 8 1804 -30 2505 -30 555 -41 734 -45 775 -3
25 -12 126 -20 225 -27 340 -55 646 -75 818 -12 94 -27 237 -36 317 -8 80 -21
192 -29 250 -8 58 -24 175 -35 260 -29 215 -66 471 -90 625 -11 72 -27 175
-35 230 -9 55 -29 172 -44 260 -16 88 -32 180 -36 205 -4 25 -20 110 -35 190
-16 80 -49 253 -75 385 -25 132 -61 308 -80 390 -18 83 -52 236 -75 340 -23
105 -86 370 -140 590 -92 372 -131 521 -209 800 -17 61 -50 175 -72 255 -81
289 -182 618 -304 985 -131 394 -210 619 -358 1015 -87 233 -325 818 -426
1048 -23 50 -58 131 -80 180 -187 426 -531 1122 -763 1547 -564 1031 -1176
1967 -1877 2870 -401 517 -740 909 -1195 1380 -822 853 -1693 1582 -2671 2235
-242 162 -281 187 -430 280 -38 24 -99 63 -135 86 -139 89 -545 322 -820 471
-282 153 -960 491 -1090 543 -25 10 -80 34 -123 54 -42 20 -79 36 -81 36 -3 0
-33 13 -68 29 -108 50 -493 205 -728 294 -296 112 -550 199 -820 283 -63 20
-155 49 -205 64 -237 75 -952 264 -1130 300 -33 6 -114 24 -180 40 -344 81
-1057 206 -1535 270 -80 10 -163 21 -185 24 -421 60 -1298 131 -1930 157 -208
9 -2443 13 -8695 14 -4628 1 -8453 0 -8500 -1z"/>
<path d="M18319 44090 c-160 -12 -266 -25 -391 -49 -60 -11 -150 -23 -200 -27
-112 -7 -519 -103 -593 -139 -27 -14 -81 -31 -120 -39 -38 -9 -105 -29 -148
-46 -43 -16 -87 -30 -97 -30 -11 0 -52 -17 -92 -38 -40 -22 -91 -45 -113 -52
-39 -13 -269 -123 -290 -139 -5 -4 -50 -30 -100 -56 -49 -26 -122 -69 -160
-95 -39 -26 -95 -60 -124 -75 -30 -15 -68 -40 -85 -56 -17 -16 -34 -29 -38
-29 -4 0 -62 -44 -130 -97 -68 -54 -139 -110 -158 -125 -19 -14 -72 -63 -118
-107 -46 -44 -89 -82 -95 -84 -8 -3 -7 -10 5 -22 16 -17 18 -17 42 -1 14 9 26
21 26 27 0 6 3 8 8 6 11 -7 54 12 48 22 -6 9 40 21 81 21 13 0 26 6 29 14 5
13 44 19 44 6 0 -3 11 -18 25 -34 14 -16 25 -40 25 -53 0 -22 3 -23 85 -23 69
0 85 -3 85 -15 0 -8 9 -15 19 -15 10 0 21 7 25 15 4 11 20 15 56 15 46 0 50
-2 50 -24 0 -22 4 -23 98 -30 125 -8 162 -2 162 30 0 15 6 24 15 24 10 0 15
-10 15 -30 0 -16 4 -30 10 -30 5 0 12 -11 16 -25 8 -31 45 -34 75 -6 12 11 35
22 52 25 18 3 46 20 64 36 18 17 36 30 41 30 5 0 15 7 22 15 8 10 31 15 70 15
55 0 59 -2 71 -29 7 -16 17 -27 21 -25 4 3 8 -15 8 -40 0 -48 -3 -46 71 -60
28 -6 49 14 49 44 0 36 10 61 21 54 5 -3 9 2 9 10 0 11 9 16 30 16 25 0 30 -4
30 -24 0 -17 7 -26 25 -30 14 -4 25 -10 25 -14 0 -5 9 -18 20 -30 15 -16 32
-22 65 -22 41 0 45 2 45 25 0 18 5 25 20 25 14 0 20 -7 20 -23 0 -31 4 -34 40
-29 24 3 30 9 31 31 1 26 1 26 8 -3 9 -41 31 -46 31 -7 l0 31 160 0 c144 0
162 -2 179 -19 12 -12 41 -21 80 -26 61 -7 61 -7 61 19 0 14 5 26 10 26 6 0
10 -11 10 -25 l0 -25 215 0 215 0 0 25 c0 14 5 25 10 25 6 0 10 -11 10 -25 l0
-25 125 0 125 0 0 25 c0 25 1 25 90 25 89 0 90 0 90 -25 0 -24 3 -25 53 -25
70 0 97 9 97 30 0 23 44 34 94 24 24 -4 36 -12 36 -23 0 -26 82 -53 120 -39
17 5 48 8 70 6 38 -3 40 -2 40 24 0 18 5 28 15 28 9 0 15 -9 15 -25 0 -23 3
-25 50 -25 40 0 54 5 72 25 28 30 26 30 311 27 l217 -2 0 -25 c0 -24 2 -25 70
-25 68 0 70 1 70 25 0 24 3 25 53 25 l53 0 12 -60 13 -60 60 0 c43 0 61 4 65
15 3 8 20 18 37 23 18 5 60 18 95 27 46 14 62 23 62 36 0 11 10 20 28 23 15 4
217 4 450 2 l422 -5 0 35 c0 31 2 34 30 34 23 0 30 -4 30 -20 0 -14 7 -20 22
-20 21 0 66 -13 120 -34 15 -6 29 -18 31 -28 4 -14 16 -18 59 -18 76 0 98 8
98 35 0 32 18 36 114 23 74 -10 90 -9 130 6 25 9 48 25 51 34 3 12 24 21 62
29 62 12 68 9 99 -43 11 -20 48 -22 141 -9 39 6 54 12 58 26 7 20 25 26 25 9
0 -5 7 -10 15 -10 8 0 15 -4 15 -10 0 -6 30 -10 70 -10 63 0 70 2 70 20 0 19
7 20 205 20 190 0 205 1 214 19 11 20 51 35 51 19 0 -6 7 -8 15 -4 8 3 14 0
12 -6 -1 -6 15 -16 36 -21 23 -5 45 -20 58 -38 17 -24 27 -29 64 -29 37 0 43
3 38 16 -5 14 2 16 51 13 48 -4 56 -2 56 14 0 10 -8 17 -18 17 -10 0 -28 9
-41 21 -12 11 -50 32 -84 45 -34 14 -71 29 -82 34 -65 28 -126 56 -255 118
-80 38 -163 75 -185 82 -22 7 -44 16 -50 21 -5 5 -15 9 -22 9 -7 0 -70 27
-140 59 -222 103 -256 117 -343 146 -47 15 -117 43 -156 61 -39 19 -76 34 -81
34 -6 0 -39 13 -74 29 -35 16 -104 41 -154 57 -49 15 -175 56 -280 91 -104 35
-233 75 -285 88 -52 13 -114 34 -137 45 -24 12 -85 30 -135 41 -51 10 -127 28
-168 40 -41 12 -120 30 -175 41 -55 11 -125 28 -155 39 -81 30 -111 37 -264
59 -77 11 -182 32 -234 46 -52 14 -156 32 -231 40 -150 14 -302 35 -456 60
-116 19 -587 27 -776 14z"/>
<path d="M28768 43663 c-47 -5 -49 -19 -5 -27 63 -11 283 -35 372 -41 50 -3
124 -10 166 -16 62 -9 90 -8 153 5 42 9 80 15 84 14 4 -1 14 1 22 5 38 14 181
29 193 19 26 -21 192 -34 377 -28 282 8 360 15 360 32 0 16 -33 17 -660 20
-411 1 -965 11 -1002 17 -13 2 -40 2 -60 0z"/>
<path d="M31180 43641 c-22 -6 -23 -8 -7 -14 24 -9 85 -7 117 3 21 7 22 8 5 9
-11 1 -36 3 -55 6 -19 2 -46 1 -60 -4z"/>
<path d="M31464 43639 c-3 -5 18 -9 47 -9 29 0 49 3 45 7 -10 11 -85 12 -92 2z"/>
<path d="M31570 43640 c0 -5 6 -10 14 -10 8 0 18 5 21 10 3 6 -3 10 -14 10
-12 0 -21 -4 -21 -10z"/>
<path d="M13681 40744 c0 -11 3 -14 6 -6 3 7 2 16 -1 19 -3 4 -6 -2 -5 -13z"/>
<path d="M13576 40575 c-10 -28 -7 -45 9 -45 11 0 15 8 12 25 -4 32 -13 40
-21 20z"/>
<path d="M13790 40480 c0 -5 -7 -7 -16 -3 -20 8 -45 -22 -65 -77 -14 -40 -20
-46 -55 -53 -29 -5 -45 -16 -64 -45 -14 -20 -27 -46 -30 -57 -8 -26 -56 -53
-70 -39 -12 12 -16 100 -5 133 5 16 4 21 -4 17 -6 -4 -11 -18 -11 -30 0 -13
-7 -29 -15 -36 -8 -7 -15 -18 -15 -26 0 -7 -8 -15 -17 -18 -17 -5 -74 -108
-73 -131 0 -5 -18 -46 -40 -90 -22 -44 -40 -86 -40 -93 0 -7 -20 -52 -44 -100
-24 -48 -56 -127 -71 -177 -15 -49 -35 -103 -45 -120 -10 -16 -41 -95 -69
-175 -28 -80 -60 -167 -71 -195 -32 -80 -85 -252 -110 -355 -13 -52 -36 -124
-52 -160 -16 -36 -35 -90 -42 -120 -8 -30 -28 -107 -45 -170 -18 -63 -39 -142
-47 -175 -9 -33 -31 -109 -50 -170 -18 -60 -40 -137 -48 -170 -8 -33 -23 -91
-34 -130 -11 -38 -41 -164 -67 -280 -26 -115 -58 -255 -72 -310 -14 -55 -42
-184 -63 -286 -21 -102 -45 -212 -54 -245 -9 -32 -27 -129 -41 -215 -13 -86
-29 -168 -34 -181 -9 -25 -43 -207 -56 -303 -4 -27 -22 -118 -41 -202 -19 -84
-43 -220 -54 -303 -11 -83 -27 -181 -34 -218 -8 -37 -17 -98 -21 -137 -10
-107 -42 -313 -70 -449 -13 -66 -29 -170 -35 -231 -14 -150 -29 -266 -47 -355
-15 -79 -33 -237 -58 -514 -9 -93 -17 -172 -19 -175 -8 -12 -55 -355 -61 -446
-4 -49 -20 -160 -36 -245 -28 -148 -35 -207 -59 -470 -5 -63 -19 -182 -29
-265 -11 -82 -27 -222 -36 -310 -22 -223 -31 -291 -59 -440 -14 -71 -29 -195
-35 -275 -17 -224 -31 -347 -51 -447 -24 -117 -37 -243 -50 -503 -12 -236 -16
-291 -36 -416 -16 -106 -30 -266 -44 -534 -12 -229 -36 -472 -51 -521 -11 -35
-32 -324 -49 -659 -11 -221 -26 -433 -40 -565 -17 -164 -20 -218 -30 -560 -6
-187 -15 -428 -20 -535 -5 -107 -14 -321 -20 -475 -6 -154 -16 -356 -23 -450
-8 -119 -12 -426 -11 -1018 2 -767 4 -851 19 -882 19 -41 30 -38 41 7 3 18 12
42 20 53 13 21 8 75 -7 75 -5 0 -9 33 -9 74 0 68 2 74 23 78 12 2 33 1 47 -3
37 -10 130 -10 130 0 0 5 10 11 23 15 22 5 47 52 47 89 0 9 4 17 9 17 4 0 6
11 4 23 -3 17 5 34 31 62 20 21 36 42 36 46 0 5 6 9 13 9 20 0 47 33 47 58 0
16 6 22 23 22 13 0 28 5 35 12 9 9 15 9 23 1 6 -6 31 -8 57 -6 37 4 54 12 80
40 17 19 32 38 32 44 0 5 4 9 9 9 5 0 12 14 16 30 4 17 13 30 21 30 8 0 14 5
14 10 0 6 15 10 33 10 25 0 37 6 45 23 6 12 11 16 11 10 1 -22 31 -14 31 7 0
11 7 20 15 20 7 0 18 6 22 13 4 7 31 23 60 37 29 14 52 31 53 38 0 19 50 62
71 62 11 0 19 5 19 11 0 5 4 8 9 5 4 -3 16 3 26 14 10 11 26 20 35 20 9 0 25
7 36 15 10 8 27 15 37 15 9 0 17 4 17 9 0 5 13 14 29 19 16 6 34 20 41 31 7
14 21 21 39 21 32 0 61 27 61 58 0 13 6 22 15 22 9 0 26 11 39 25 14 14 34 25
50 25 17 0 26 5 26 15 0 18 39 35 81 35 16 0 29 5 29 10 0 6 7 10 15 10 8 0
15 9 15 20 0 14 11 22 40 31 22 7 40 18 40 26 0 7 9 13 19 13 13 0 24 11 32
35 10 28 20 36 46 41 18 3 37 12 41 19 4 7 29 15 56 17 27 3 52 12 57 19 5 8
9 10 9 4 1 -5 5 0 10 13 5 12 18 25 27 28 10 3 26 10 35 15 10 5 27 9 38 9 11
0 20 5 20 10 0 6 6 10 13 10 15 1 48 29 64 55 6 11 16 19 22 18 6 -2 11 3 11
11 0 23 19 30 85 30 45 1 66 6 79 19 10 9 22 17 27 17 6 0 15 14 20 30 6 17
15 30 21 30 5 0 7 4 4 9 -3 5 5 12 18 15 18 4 22 11 19 29 -6 32 15 47 76 54
41 5 59 13 85 39 19 19 43 34 54 34 56 0 80 12 86 43 3 17 22 45 41 63 19 17
35 39 35 49 0 14 9 16 55 14 73 -3 122 21 166 84 19 28 37 59 41 69 9 23 107
68 148 68 17 0 30 5 30 10 0 6 18 10 39 10 22 0 43 5 46 10 3 6 19 10 35 10
23 0 33 7 45 30 11 20 20 27 32 23 21 -8 43 22 43 61 0 16 4 55 10 85 20 115
31 285 40 616 10 344 31 910 50 1330 6 127 15 340 20 474 5 134 16 330 24 435
18 230 44 616 51 781 8 155 22 337 40 500 7 72 19 198 25 280 9 130 26 294 61
605 5 41 18 140 28 220 11 80 25 192 30 250 6 58 20 182 31 275 11 94 27 231
35 305 9 74 29 207 45 295 16 88 32 192 36 230 7 86 28 220 53 340 11 50 22
119 26 155 18 186 30 266 56 375 15 66 33 165 40 220 6 55 24 154 40 220 16
66 36 166 44 223 8 56 26 149 39 205 14 56 34 159 46 229 12 70 37 182 55 248
19 67 35 129 35 138 0 9 12 67 26 127 43 181 65 276 84 360 29 126 87 347 100
380 6 17 23 75 36 130 14 55 45 159 70 230 24 72 44 141 44 153 0 12 14 56 31
99 17 43 40 112 50 152 11 41 27 89 37 105 19 33 38 85 102 291 23 72 59 168
80 215 22 47 42 99 46 115 3 17 26 76 50 132 24 56 44 109 44 118 0 9 15 49
34 88 19 40 39 88 46 108 6 20 25 58 42 84 17 26 42 75 54 109 31 85 84 202
117 259 16 26 37 73 48 104 10 30 32 76 48 102 15 26 32 58 36 72 9 31 90 182
125 234 15 22 35 63 45 90 10 28 33 69 52 92 18 23 33 45 33 49 0 11 131 233
141 240 5 3 9 12 9 20 0 12 32 66 50 84 3 3 17 29 32 59 21 41 25 58 17 72 -5
11 -15 19 -22 19 -9 0 -8 3 1 9 14 9 7 61 -9 61 -5 0 -18 9 -29 20 -15 15 -36
20 -92 22 l-73 3 -6 45 c-3 25 -14 62 -24 83 -18 36 -20 37 -79 39 -34 1 -80
1 -104 0 -37 -2 -44 2 -54 23 -6 14 -17 25 -24 25 -23 0 -44 -12 -44 -26 0
-22 -38 -16 -45 6 -4 12 -14 20 -23 19 -31 -3 -43 1 -37 11 3 6 -1 10 -9 10
-11 0 -16 9 -16 29 0 42 -19 53 -79 45 -28 -4 -54 -11 -57 -15 -3 -5 -18 -9
-35 -9 -19 0 -29 -5 -29 -15 0 -19 -31 -35 -69 -35 -17 0 -34 -7 -39 -16 -8
-15 -12 -14 -36 7 -14 12 -26 28 -26 35 0 7 -7 20 -16 28 -8 9 -13 16 -9 16 4
0 0 7 -9 15 -8 8 -19 15 -25 15 -5 0 -13 16 -17 35 -3 19 -16 46 -29 61 -21
24 -29 27 -86 25 -48 -1 -67 -6 -84 -23 -28 -27 -55 -32 -56 -10 0 11 -2 12
-6 5 -7 -19 -133 -18 -133 1 0 7 -6 19 -14 25 -8 7 -12 22 -9 34 4 18 3 19 -6
7 -9 -13 -11 -11 -11 6 0 26 -17 34 -75 34 -33 0 -47 -5 -54 -19 -14 -26 -79
-33 -86 -10 -6 18 -63 28 -192 32 -61 2 -62 2 -68 35 -5 29 -9 32 -40 32 -20
0 -38 6 -42 15 -7 12 -43 16 -186 20 -115 3 -185 1 -198 -5 -14 -8 -35 -7 -74
2 -50 11 -55 15 -55 39 0 35 -26 42 -159 40 -57 -1 -108 2 -115 7 -6 5 -39 12
-72 16 -49 5 -65 4 -77 -9 -10 -9 -33 -15 -61 -15 l-46 0 0 45 c0 33 -5 47
-16 52 -9 3 -19 1 -23 -6 -11 -17 -119 -35 -135 -22 -7 6 -27 8 -45 5 l-31 -6
0 51 c0 38 -4 51 -15 51 -8 0 -17 11 -21 25 -5 19 -13 25 -34 25 -19 0 -30 -6
-33 -17 -4 -17 -5 -17 -6 0 -1 12 -10 17 -31 17 -16 0 -30 -4 -30 -10z m3567
-1072 c-3 -8 -6 -5 -6 6 -1 11 2 17 5 13 3 -3 4 -12 1 -19z"/>
<path d="M14822 40238 c2 -19 10 -23 38 -24 l35 -1 -33 4 c-28 4 -33 8 -29 24
3 10 1 19 -5 19 -5 0 -8 -10 -6 -22z"/>
<path d="M17502 39569 c-8 -12 -19 -18 -28 -15 -16 6 -18 -2 -5 -22 6 -11 14
-8 36 12 15 14 24 26 19 26 -5 0 -2 5 6 10 13 9 13 10 0 10 -8 0 -21 -9 -28
-21z"/>
<path d="M17395 39430 c-3 -6 1 -7 9 -4 18 7 21 14 7 14 -6 0 -13 -4 -16 -10z"/>
<path d="M23195 25774 c-194 -14 -327 -32 -425 -57 -30 -8 -100 -20 -155 -26
-68 -8 -137 -25 -215 -52 -63 -22 -135 -46 -160 -53 -25 -7 -68 -23 -95 -35
-28 -13 -86 -33 -131 -46 -45 -13 -113 -40 -152 -60 -39 -19 -76 -35 -84 -35
-7 0 -38 -15 -69 -34 -64 -38 -130 -69 -171 -79 -16 -4 -49 -21 -75 -37 -26
-17 -51 -30 -56 -30 -5 0 -30 -15 -56 -33 -44 -32 -112 -67 -158 -81 -13 -4
-23 -11 -23 -15 0 -4 -24 -20 -52 -36 -29 -15 -75 -44 -103 -63 -129 -92 -204
-142 -211 -142 -4 0 -37 -24 -73 -53 -56 -45 -137 -105 -227 -167 -48 -33
-173 -130 -190 -147 -11 -10 -57 -52 -104 -93 -98 -85 -163 -145 -350 -320
-179 -167 -222 -210 -358 -359 -63 -69 -152 -163 -197 -207 -45 -45 -107 -119
-137 -165 -31 -46 -72 -100 -92 -118 -20 -19 -36 -40 -36 -46 0 -6 -36 -55
-81 -110 -44 -55 -88 -113 -96 -130 -8 -16 -32 -50 -52 -75 -42 -51 -95 -127
-169 -245 -28 -44 -68 -105 -90 -135 -21 -30 -58 -91 -82 -135 -24 -44 -60
-104 -82 -132 -21 -29 -59 -92 -85 -140 -25 -49 -65 -120 -89 -159 -24 -39
-44 -74 -44 -77 0 -4 -15 -30 -34 -59 -18 -29 -56 -98 -85 -153 -28 -55 -73
-140 -101 -190 -28 -49 -100 -189 -161 -310 -61 -121 -120 -235 -131 -253 -11
-18 -34 -67 -52 -110 -17 -42 -45 -102 -63 -132 -17 -30 -34 -66 -38 -80 -4
-14 -27 -61 -50 -105 -24 -44 -64 -134 -89 -200 -41 -106 -100 -236 -171 -375
-13 -25 -35 -74 -48 -110 -42 -109 -116 -282 -126 -294 -13 -16 -121 -293
-121 -310 0 -8 -18 -49 -39 -91 -22 -42 -45 -93 -52 -113 -6 -20 -27 -68 -46
-106 -19 -38 -42 -95 -50 -125 -7 -31 -25 -75 -38 -98 -12 -23 -33 -73 -44
-110 -12 -37 -37 -99 -56 -138 -19 -38 -40 -86 -47 -105 -33 -93 -174 -177
-275 -166 -80 9 -356 100 -410 134 -26 17 -96 80 -155 139 -81 83 -119 130
-161 203 -99 173 -184 371 -218 505 -11 44 -35 136 -54 205 -70 260 -115 460
-134 595 -11 77 -27 194 -36 260 -22 160 -43 292 -62 390 -16 82 -31 199 -58
430 -8 72 -20 152 -25 178 -6 26 -10 71 -11 100 0 29 -7 86 -14 127 -8 41 -20
118 -26 170 -6 52 -19 114 -30 136 -16 36 -22 41 -44 37 -18 -4 -27 -14 -33
-37 -7 -25 -14 -32 -38 -34 -16 -2 -33 -8 -38 -13 -6 -5 -20 -9 -33 -9 -14 0
-23 -6 -23 -15 0 -8 -7 -15 -15 -15 -8 0 -23 -4 -33 -9 -15 -9 -123 -29 -192
-37 -14 -1 -28 -3 -31 -3 -3 -1 -18 -12 -33 -26 -15 -14 -34 -25 -42 -25 -7 0
-14 -7 -14 -14 0 -11 -15 -16 -51 -18 -39 -2 -55 -8 -63 -22 -24 -43 -70 -86
-92 -86 -12 0 -29 -6 -37 -14 -8 -8 -35 -16 -60 -18 -57 -5 -97 -38 -97 -80 0
-21 -5 -28 -20 -28 -11 0 -23 -7 -26 -15 -3 -8 -21 -17 -39 -21 -18 -3 -43
-15 -54 -25 -11 -11 -24 -18 -28 -17 -4 2 -18 -7 -31 -20 -13 -13 -29 -21 -37
-19 -8 4 -15 -5 -18 -23 -5 -22 -18 -34 -59 -53 -29 -14 -65 -28 -80 -31 -15
-4 -30 -15 -33 -26 -5 -15 -15 -20 -41 -20 -19 0 -34 -4 -34 -10 0 -5 -25 -10
-55 -10 -59 0 -81 -9 -130 -52 -16 -16 -34 -28 -38 -28 -5 0 -20 -13 -34 -30
-13 -16 -33 -30 -42 -30 -10 0 -32 -12 -49 -27 -50 -45 -58 -51 -96 -67 -20
-8 -36 -21 -36 -29 0 -8 -7 -20 -15 -27 -9 -7 -14 -19 -11 -27 3 -8 -4 -15
-19 -19 -16 -4 -25 -13 -25 -25 0 -11 -8 -22 -17 -25 -10 -3 -41 -16 -69 -30
-28 -13 -59 -24 -69 -24 -10 0 -26 -7 -36 -16 -10 -9 -34 -16 -53 -17 -20 -1
-36 -5 -36 -9 0 -4 -11 -8 -25 -8 -16 0 -25 -6 -25 -15 0 -8 -7 -15 -15 -15
-8 0 -15 -6 -15 -14 0 -16 -21 -26 -55 -26 -17 0 -25 -6 -27 -22 -2 -18 -11
-24 -35 -26 -18 -2 -33 -7 -33 -13 0 -5 -7 -9 -15 -9 -8 0 -15 -8 -15 -19 0
-14 -10 -21 -37 -26 -21 -4 -46 -15 -56 -26 -10 -10 -27 -20 -37 -20 -11 -1
-28 -2 -37 -2 -10 -1 -21 -6 -25 -12 -5 -6 -11 -5 -18 5 -6 10 -10 11 -10 3 0
-7 -7 -13 -15 -13 -8 0 -15 -4 -15 -9 0 -12 -76 -61 -95 -61 -8 0 -15 4 -15 9
0 13 -58 5 -76 -10 -8 -6 -14 -25 -14 -41 0 -30 -40 -78 -66 -78 -7 0 -14 -4
-16 -10 -2 -5 -23 -20 -48 -33 -25 -13 -54 -37 -65 -54 -11 -18 -29 -37 -40
-43 -11 -6 -28 -24 -37 -40 -15 -26 -23 -30 -58 -30 -23 0 -40 -5 -40 -11 0
-8 -17 -10 -51 -7 -52 5 -89 -10 -89 -37 0 -13 -36 -45 -50 -45 -6 0 -10 -4
-10 -10 0 -5 -15 -10 -34 -10 -18 0 -39 -7 -46 -15 -7 -8 -21 -15 -30 -15 -10
0 -21 -6 -24 -12 -5 -10 -7 -10 -12 -1 -3 7 -11 10 -17 7 -7 -2 -18 15 -27 45
-13 43 -17 48 -31 38 -13 -10 -17 -47 -23 -224 -9 -300 -7 -1239 4 -1418 5
-82 14 -235 19 -340 6 -104 15 -221 20 -260 6 -38 13 -155 16 -260 17 -549 43
-995 61 -1045 3 -8 11 -131 19 -275 21 -371 43 -631 60 -700 8 -33 24 -179 35
-325 22 -293 23 -302 50 -445 10 -55 26 -192 35 -305 20 -268 33 -369 56 -460
29 -118 40 -226 49 -495 7 -233 10 -254 33 -316 36 -93 67 -264 67 -368 0
-103 16 -238 35 -301 8 -25 26 -117 40 -205 15 -88 37 -207 50 -265 13 -58 29
-157 34 -220 12 -126 21 -187 51 -325 11 -49 29 -155 41 -235 11 -80 29 -183
39 -230 19 -87 32 -163 50 -307 6 -45 22 -119 35 -165 14 -46 34 -146 46 -223
11 -77 29 -174 40 -216 10 -42 30 -147 44 -234 14 -86 35 -189 46 -229 12 -39
36 -145 54 -236 18 -91 37 -176 43 -190 5 -14 22 -86 37 -160 15 -74 33 -147
41 -162 13 -24 41 -126 129 -460 19 -71 36 -132 40 -137 3 -5 16 -61 30 -123
23 -106 79 -295 127 -433 39 -112 67 -200 81 -260 59 -246 102 -386 135 -445
20 -36 45 -90 55 -120 34 -103 157 -351 240 -486 82 -134 177 -249 257 -312
133 -104 219 -154 328 -191 102 -34 113 -35 248 -36 l140 0 75 37 c101 50 196
120 244 181 172 220 331 478 469 762 24 50 82 167 129 262 47 95 95 203 107
240 13 37 54 137 92 221 38 85 86 204 107 265 56 165 117 331 130 355 19 35
81 219 107 315 13 48 38 120 55 160 40 93 124 332 149 422 10 39 42 135 70
215 28 80 60 179 71 220 25 93 42 142 68 201 12 26 28 81 37 123 8 42 27 104
40 138 14 35 34 99 45 143 11 44 33 107 49 140 16 33 36 89 45 125 9 36 25 90
35 120 10 31 26 94 35 140 9 47 34 123 56 170 21 47 45 118 54 158 8 40 21 85
29 100 19 36 42 132 51 206 4 32 18 88 31 123 14 36 31 109 39 162 13 89 33
158 84 287 11 29 25 87 30 130 5 44 17 98 25 120 8 23 26 97 41 165 15 68 42
162 60 209 18 47 38 121 45 165 7 44 18 95 26 114 23 56 43 141 59 260 9 63
27 149 41 193 14 43 32 118 40 166 9 48 29 120 45 160 16 41 38 124 49 185 11
62 28 144 39 182 11 39 31 129 46 200 14 72 33 150 41 175 18 52 61 237 109
465 19 89 39 174 45 190 14 37 90 328 131 499 17 71 37 146 45 165 9 20 26 88
39 151 13 63 28 135 34 160 60 247 93 374 100 389 5 9 37 131 71 271 34 140
75 302 92 360 17 58 34 125 39 149 5 24 24 94 43 155 19 61 46 158 60 216 45
184 95 359 111 390 9 17 29 83 46 147 16 64 37 129 45 145 8 16 24 72 35 124
11 52 50 179 85 282 36 103 79 234 95 291 16 57 34 112 40 123 11 20 70 182
116 318 14 41 38 107 54 145 16 39 42 112 58 163 16 51 34 99 39 105 6 7 21
49 35 94 14 45 35 96 47 113 21 29 51 100 131 304 21 55 49 116 62 135 13 20
29 56 36 81 7 24 33 82 57 127 24 46 44 91 44 99 0 12 27 69 59 124 5 8 19 42
31 75 13 33 31 72 42 87 16 23 44 81 94 197 35 80 120 250 155 311 21 36 44
81 50 100 11 30 61 119 118 210 20 30 79 135 121 213 17 32 50 87 73 122 23
35 62 97 86 137 53 88 192 301 201 308 3 3 35 46 70 95 35 50 87 115 116 145
28 30 75 91 104 135 30 44 72 98 94 121 23 22 61 65 86 94 148 178 450 485
610 622 171 145 345 282 437 343 54 36 112 76 130 91 40 33 300 186 478 282
74 41 188 93 253 117 64 24 160 60 212 80 163 63 234 82 540 146 435 89 380
84 830 83 436 0 427 1 760 -63 277 -53 497 -111 640 -166 74 -30 185 -72 245
-96 200 -77 627 -304 755 -402 35 -27 76 -54 90 -61 14 -6 58 -35 99 -66 40
-30 85 -64 100 -74 200 -146 436 -355 711 -628 234 -233 297 -299 365 -383 27
-33 79 -94 116 -135 37 -41 83 -99 102 -127 41 -64 175 -226 199 -241 9 -7 19
-8 21 -4 6 8 -83 246 -112 303 -12 22 -21 45 -21 51 0 6 -20 52 -44 102 -24
50 -63 132 -86 181 -48 101 -153 294 -186 340 -11 17 -43 71 -69 120 -26 50
-71 122 -100 160 -28 39 -73 104 -100 145 -27 41 -81 114 -119 161 -39 47 -96
117 -126 156 -140 179 -291 344 -475 520 -221 213 -213 206 -375 337 -115 93
-237 182 -360 263 -36 23 -85 56 -110 73 -100 69 -264 164 -420 243 -91 46
-178 91 -195 100 -73 39 -229 107 -282 122 -32 9 -89 29 -128 45 -38 17 -107
39 -153 50 -46 12 -99 29 -119 40 -19 10 -67 24 -106 30 -116 19 -206 36 -302
58 -171 39 -823 59 -1140 36z"/>
</g>
</svg>
